<?xml version="1.0" encoding="UTF-8"?><svg id="a" xmlns="http://www.w3.org/2000/svg" viewBox="0 0 52 24"><polygon points="12.3 3.39 15.18 4.66 15.18 4.85 15.18 4.85 14.04 5.35 12.43 4.65 9.86 3.51 7.29 4.65 5.68 5.35 4.54 4.85 4.54 4.85 4.54 4.85 4.54 4.66 7.43 3.39 6.59 3.02 9.51 1.73 9.86 0 10.22 1.73 13.13 3.02 12.3 3.39" style="fill:#004fa3; fill-rule:evenodd; stroke-width:0px;"/><path d="m13.15,20.22c.22-.61.34-1.26.34-1.94,0-2.31,0-4.6,0-6.91,0-2.24,1.95-3.92,4.11-3.46-.44-.97-1.31-1.64-2.43-1.64-2.25,0-4.1,2.29-4.1,5.15,0,2.3,0,4.57,0,6.86,0,.67-.2,1.3-.55,1.82.39.3.87.49,1.4.49.45,0,.88-.14,1.23-.37m-10.94-1.94c0,3.15,2.48,5.73,5.6,5.73h0c.21,0,.41-.01.61-.03-1.17-.74-2.1-1.83-2.64-3.13-.75-.6-1.15-1.53-1.15-2.56v-5.6c0-2.99-3.81-3.37-4.44-.99.09-.02.19-.03.29-.03.91,0,1.73.75,1.73,1.66v4.96Z" style="fill:#fabd0f; fill-rule:evenodd; stroke-width:0px;"/><path d="m15.09,12.68c0-2.98,3.74-3.37,4.37-.99-.09-.02-.19-.03-.29-.03-.91,0-1.66.75-1.66,1.66v4.96c0,3.15-2.48,5.73-5.6,5.73h0c-3.12,0-5.68-2.58-5.68-5.73,0-2.31,0-4.6,0-6.91,0-2.24-1.95-3.92-4.11-3.46.44-.97,1.31-1.64,2.43-1.64,2.25,0,4.1,2.29,4.1,5.15,0,2.3,0,4.57,0,6.86,0,1.81,1.47,3.29,3.26,3.29h0c1.79,0,3.19-1.48,3.18-3.29v-5.6Z" style="fill:#004fa3; fill-rule:evenodd; stroke-width:0px;"/><path d="m9.86,8.72c-.24-.52-.54-1.02-.9-1.48-.48-.62-1.05-1.14-1.68-1.54h.01s2.57-1.14,2.57-1.14l2.55,1.13h.03c-.63.41-1.2.94-1.68,1.55-.35.46-.65.95-.9,1.48" style="fill:#fabd0f; fill-rule:evenodd; stroke-width:0px;"/><text transform="translate(24.32 21.82)" style="fill:#004fa3; font-family:SegoeUI-Italic, &apos;Segoe UI&apos;; font-size:2.02px; font-style:italic;"><tspan x="0" y="0">Dignity </tspan></text><text transform="translate(32.9 21.82)" style="fill:#004fa3; font-family:SegoeUI-Italic, &apos;Segoe UI&apos;; font-size:2.02px; font-style:italic;"><tspan x="0" y="0">Quality </tspan></text><text transform="translate(41.55 21.82)" style="fill:#004fa3; font-family:SegoeUI-Italic, &apos;Segoe UI&apos;; font-size:2.02px; font-style:italic;"><tspan x="0" y="0">Integrity</tspan></text><path d="m31.84,21.04c.13,0,.23.1.23.23s-.1.23-.23.23-.23-.1-.23-.23.1-.23.23-.23" style="fill:#004fa3; fill-rule:evenodd; stroke-width:0px;"/><path d="m40.44,21.04c.13,0,.23.1.23.23s-.1.23-.23.23-.23-.1-.23-.23.1-.23.23-.23" style="fill:#004fa3; fill-rule:evenodd; stroke-width:0px;"/><path d="m42.8,14.98c.22,0,1.71.02,1.88,0v-3.78c.94,0,1.03-.06,1.39.63l1.64,3.16h2.11c-.05-.14-1.2-2.38-1.3-2.56-.29-.55-.68-1.41-1.03-1.87-.17-.22-.28-.31-.49-.48.07-.06.13-.13.2-.2.17-.17,1.1-1.48,1.27-1.71l1.42-1.97c-.67-.02-1.52,0-2.21,0-.07,0-.09.07-.17.19l-2,2.81c-.25.27-.45.23-.83.23v-3.22c-.17-.03-1.59,0-1.88,0v8.8Z" style="fill:#004fa3; fill-rule:evenodd; stroke-width:0px;"/><path d="m31.98,14.99h1.73s.36-5.39.36-5.39c0-.13.02-.26.03-.4,0-.13-.02-.29.07-.35.17-.04.16.18.18.32.03.16.06.31.09.46.06.29.13.59.2.88l.79,3.52c.15.71.24.96,1.2.96.99,0,1-.35,1.15-1.01.13-.59.26-1.18.4-1.76l.72-3.31c.03-.07.11-.1.17-.03.05.06.2,2.73.22,3.03.07,1.02.14,2.04.21,3.06h1.73c-.08-1.52-.2-3.06-.31-4.59-.05-.76-.1-1.53-.16-2.3-.03-.38-.04-.77-.08-1.15-.03-.37-.26-.55-.58-.65-.66-.23-1.56-.16-1.93.27-.2.23-.24.55-.33.9-.36,1.46-.72,2.99-1.09,4.44-.03.13-.06.41-.16.47-.08-.04-.08-.1-.11-.2-.02-.08-.04-.16-.06-.24l-.84-3.45c-.08-.33-.16-.66-.24-.99-.15-.65-.21-1.21-1.15-1.32-.34-.04-.79,0-1.1.1-.31.1-.55.27-.59.64-.04.38-.05.77-.08,1.15-.05.76-.1,1.53-.16,2.3-.11,1.53-.23,3.08-.31,4.61" style="fill:#004fa3; fill-rule:evenodd; stroke-width:0px;"/><path d="m26.9,13.36c-.8.03-1.59-.47-1.59-1.7v-4.42c0-1.07-1-1.06-1.28-1.06-.2,0-.4,0-.6,0,0,1.62,0,3.2,0,4.79,0,1.73.28,2.67,1.35,3.41.55.38,1.32.6,2.12.6.79,0,1.56-.22,2.12-.6,1.07-.74,1.35-1.68,1.35-3.41,0-1.59,0-3.17,0-4.79-.2,0-.4,0-.6,0-.28,0-1.28,0-1.28,1.06v4.42c0,1.23-.8,1.73-1.59,1.7" style="fill:#004fa3; fill-rule:evenodd; stroke-width:0px;"/><path d="m21.52,17.06v.23c0,.22,0,.44,0,.66,0,.2.08.38.18.48.02.02.02.03.04.04.1.1.27.15.42.15.17,0,.36-.08.46-.2.12-.14.17-.28.18-.48,0-.22,0-.44,0-.66v-.22h0c0-.21,0-.38,0-.43h-.09s-.14,0-.14.16c0,.09,0,.18,0,.28h0v.67c0,.18.01.34-.07.49-.06.1-.17.21-.34.21-.08,0-.16-.03-.21-.07-.21-.15-.19-.4-.19-.63v-.67h0c0-.09,0-.18,0-.28,0-.16-.13-.16-.14-.16h-.09s0,.22,0,.43h0Z" style="fill:#004fa3; fill-rule:evenodd; stroke-width:0px;"/><path d="m23.42,18.62v-.9c0-.09,0-.87,0-.89.02,0,.03.06.05.1l.49,1.46c.03.08.05.16.1.2.12.08.34.07.37-.15.01-.08,0-.21,0-.3v-1.5h-.23v.9c0,.1,0,.86,0,.89-.03,0-.04-.05-.05-.1l-.49-1.46c-.03-.09-.04-.15-.1-.2-.05-.04-.16-.06-.24-.03-.17.07-.13.3-.13.47v1.51h.23Z" style="fill:#004fa3; fill-rule:evenodd; stroke-width:0px;"/><polygon points="24.85 18.6 25.06 18.6 25.08 18.6 25.08 16.63 25.06 16.63 24.85 16.63 24.85 18.6" style="fill:#004fa3; fill-rule:evenodd; stroke-width:0px;"/><path d="m25.35,16.63c.02.09.05.18.07.27.02.09.04.18.07.27l.27,1.08c.05.2.06.38.3.38.23,0,.25-.21.29-.38.05-.18.09-.36.13-.54l.2-.81c.02-.08.05-.18.07-.27h-.23c-.03.15-.08.31-.12.45-.04.15-.08.3-.12.45l-.22.84c-.02.06-.04.06-.05,0l-.33-1.29c-.02-.07-.04-.15-.06-.22l-.04-.17s0-.04-.02-.05h-.23Z" style="fill:#004fa3; fill-rule:evenodd; stroke-width:0px;"/><path d="m28.01,18.6v-.19h-.76s0-.78,0-.78h.73s0-.15,0-.19h-.74v-.62s.76,0,.76,0v-.2s-.65,0-.74,0c0,0-.02,0-.03,0h0s-.03,0-.04,0h-.19v.44c0,.43,0,1.16,0,1.29,0,.23.04.25.25.25.1,0,.7,0,.74,0" style="fill:#004fa3; fill-rule:evenodd; stroke-width:0px;"/><path d="m28.89,17.76c.08.16.16.33.24.49.18.36.17.35.38.35-.02-.08-.27-.57-.42-.87.04,0,.07-.02.1-.03.33-.15.4-.6.21-.87-.19-.25-.46-.21-.76-.21-.02,0-.04,0-.06,0h-.21v.17c0,.07,0,.15,0,.2v1.61h.23s0-.85,0-.85c.09,0,.18,0,.28,0m-.28-.93c.14,0,.37-.02.49.03.12.05.19.16.19.34,0,.17-.08.27-.19.33-.12.06-.34.04-.48.04v-.73Z" style="fill:#004fa3; fill-rule:evenodd; stroke-width:0px;"/><path d="m29.71,18.28c.12.24.53.43.88.25.3-.16.38-.6.1-.85-.19-.17-.69-.31-.71-.56-.01-.18.16-.3.33-.3.08,0,.16.03.22.07.12.08.18.1.32,0-.25-.41-1.15-.36-1.1.26.02.19.16.3.27.37.24.15.71.27.58.67-.07.21-.32.3-.58.12-.07-.05-.19-.17-.32-.03" style="fill:#004fa3; fill-rule:evenodd; stroke-width:0px;"/><polygon points="31.18 18.6 31.39 18.6 31.41 18.6 31.41 16.63 31.39 16.63 31.18 16.63 31.18 18.6" style="fill:#004fa3; fill-rule:evenodd; stroke-width:0px;"/><path d="m32.34,18.6v-1.78s.2,0,.24,0h.25v-.19s-1.21,0-1.21,0v.19h.49v1.78h.23Z" style="fill:#004fa3; fill-rule:evenodd; stroke-width:0px;"/><path d="m32.76,18.62h.23s.16-.62.16-.62h.62s.06.24.08.31l.07.27s0,.03.02.04h.22c-.02-.09-.05-.18-.07-.27l-.34-1.34c-.05-.19-.07-.38-.29-.38-.24,0-.25.18-.3.37-.04.18-.09.36-.13.54l-.2.81c-.02.09-.05.19-.07.27m.44-.81c.01-.07.04-.17.06-.25l.16-.62s.02-.11.05-.11c.02,0,.02.03.03.05l.24.92h-.53Z" style="fill:#004fa3; fill-rule:evenodd; stroke-width:0px;"/><path d="m34.29,18.28c.12.24.53.43.88.25.3-.16.38-.6.1-.85-.19-.17-.69-.31-.71-.56-.01-.18.16-.3.34-.3.08,0,.16.03.22.07.12.08.18.1.32,0-.25-.41-1.15-.36-1.1.26.02.19.16.3.27.37.24.15.71.27.58.67-.07.21-.32.3-.58.12-.07-.05-.19-.17-.32-.03" style="fill:#004fa3; fill-rule:evenodd; stroke-width:0px;"/><path d="m36.47,18.62c.02-.3.05-.6.07-.9.01-.15.02-.3.03-.45,0-.06.02-.42.04-.44.03,0,.03.01.04.04l.18.92c.02.11.12.65.15.73.03.08.09.1.19.1.11,0,.16-.02.19-.11.03-.08.13-.62.15-.73l.17-.86c.01-.07,0-.1.05-.1.02.03.02.17.03.22l.12,1.57s.19,0,.23,0c-.04-.53-.1-1.09-.15-1.62-.02-.22,0-.37-.21-.37-.11,0-.17,0-.22.08-.03.06-.05.16-.06.24l-.23,1.24s-.04.23-.05.24c-.03,0-.03-.02-.03-.04l-.27-1.43c-.01-.07-.03-.18-.06-.24-.04-.08-.1-.09-.21-.08-.1,0-.16.03-.19.11-.02.07-.03.19-.03.26-.02.18-.03.36-.05.54-.03.36-.07.72-.1,1.08h.23Z" style="fill:#004fa3; fill-rule:evenodd; stroke-width:0px;"/><path d="m38.45,17.06v.23c0,.22,0,.44,0,.66,0,.2.08.38.18.48.02.02.02.03.04.04.1.1.27.15.42.15.17,0,.36-.08.46-.2.12-.14.17-.28.18-.48,0-.22,0-.44,0-.66v-.22h0c0-.21,0-.38,0-.43h-.09s-.14,0-.14.16c0,.09,0,.18,0,.28h0v.67c0,.18.01.34-.07.49-.06.1-.17.21-.34.21-.08,0-.16-.03-.21-.07-.21-.15-.19-.4-.19-.63v-.67h0c0-.09,0-.18,0-.28,0-.16-.13-.16-.14-.16h-.09s0,.22,0,.43h0Z" style="fill:#004fa3; fill-rule:evenodd; stroke-width:0px;"/><path d="m40.72,17.76c.08.16.16.33.24.49.18.36.17.35.38.35-.02-.08-.27-.57-.42-.87.04,0,.07-.02.1-.03.33-.15.4-.6.21-.87-.19-.25-.46-.21-.76-.21-.02,0-.04,0-.06,0h-.21v.17c0,.07,0,.15,0,.2v1.61h.23s0-.85,0-.85c.09,0,.18,0,.28,0m-.28-.93c.14,0,.37-.02.49.03.12.05.19.16.19.34,0,.17-.08.27-.19.33-.12.06-.34.04-.48.04v-.73Z" style="fill:#004fa3; fill-rule:evenodd; stroke-width:0px;"/><polygon points="41.65 18.6 41.86 18.6 41.88 18.6 41.88 16.63 41.86 16.63 41.65 16.63 41.65 18.6" style="fill:#004fa3; fill-rule:evenodd; stroke-width:0px;"/><path d="m42.1,18.62h.23s.16-.62.16-.62h.62s.06.24.08.31l.07.27s0,.03.02.04h.22c-.02-.09-.05-.18-.07-.27l-.34-1.34c-.05-.19-.07-.38-.29-.38-.24,0-.25.18-.3.37-.04.18-.09.36-.13.54l-.2.81c-.02.09-.05.19-.07.27m.44-.81c.01-.07.04-.17.06-.25l.16-.62s.02-.11.05-.11c.02,0,.02.03.03.05l.24.92h-.53Z" style="fill:#004fa3; fill-rule:evenodd; stroke-width:0px;"/><path d="m44.94,17.52s.03-.03.04-.05c.01-.02.03-.03.04-.05.05-.07.15-.25.19-.34.03-.06.24-.43.25-.46h-.26c-.04.09-.14.27-.2.38-.05.1-.15.29-.21.37-.08.1-.14.08-.3.08v-.82h-.23s0,1.98,0,1.98h.23v-.96c.28,0,.36,0,.45.21l.2.45s.13.3.14.3h.24s-.04-.1-.06-.15c-.02-.05-.04-.1-.06-.15l-.26-.58c-.02-.05-.05-.09-.08-.13-.05-.06-.07-.06-.12-.09" style="fill:#004fa3; fill-rule:evenodd; stroke-width:0px;"/><path d="m45.7,17.06v.23c0,.22,0,.44,0,.66,0,.2.08.38.18.48.02.02.02.03.04.04.1.1.27.15.42.15.17,0,.36-.08.46-.2.12-.14.17-.28.18-.48,0-.22,0-.44,0-.66v-.22h0c0-.21,0-.38,0-.43h-.09s-.14,0-.14.16c0,.09,0,.18,0,.28h0v.67c0,.18.01.34-.07.49-.06.1-.17.21-.34.21-.08,0-.16-.03-.21-.07-.21-.15-.19-.4-.19-.63v-.67h0c0-.09,0-.18,0-.28,0-.16-.13-.16-.14-.16h-.09s0,.22,0,.43h0Z" style="fill:#004fa3; fill-rule:evenodd; stroke-width:0px;"/><path d="m47.51,16.63c-.06,0-.1.05-.12.09-.02.05-.01.14-.01.2v1.48c0,.19.09.2.23.2h.21c.32,0,.47,0,.68-.17.33-.28.37-.91.22-1.31-.08-.2-.22-.36-.41-.44-.18-.07-.38-.05-.58-.05-.06,0-.16,0-.21,0m.1.2c.19,0,.46-.03.62.04.15.07.24.19.29.36.07.22.07.55,0,.77-.07.23-.22.39-.47.4-.14,0-.3,0-.44,0v-1.58Z" style="fill:#004fa3; fill-rule:evenodd; stroke-width:0px;"/><path d="m49.08,17.06v.23c0,.22,0,.44,0,.66,0,.2.08.38.18.48.02.02.02.03.04.04.1.1.27.15.42.15.17,0,.36-.08.46-.2.12-.14.17-.28.18-.48,0-.22,0-.44,0-.66v-.22h0c0-.21,0-.38,0-.43h-.09s-.14,0-.14.16c0,.09,0,.18,0,.28h0v.67c0,.18.01.34-.07.49-.06.1-.17.21-.34.21-.08,0-.16-.03-.21-.07-.21-.15-.19-.4-.19-.63v-.67h0c0-.09,0-.18,0-.28,0-.16-.13-.16-.14-.16h-.09s0,.22,0,.43h0Z" style="fill:#004fa3; fill-rule:evenodd; stroke-width:0px;"/><path d="m50.66,18.28c.12.24.53.43.88.25.3-.16.38-.6.1-.85-.19-.17-.69-.31-.71-.56-.01-.18.16-.3.33-.3.08,0,.16.03.22.07.12.08.18.1.32,0-.25-.41-1.15-.36-1.1.26.02.19.16.3.27.37.24.15.71.27.58.67-.07.21-.32.3-.58.12-.07-.05-.19-.17-.32-.03" style="fill:#004fa3; fill-rule:evenodd; stroke-width:0px;"/></svg>