<?xml version="1.0" encoding="UTF-8"?><svg id="a" xmlns="http://www.w3.org/2000/svg" viewBox="0 0 330 190.67"><polygon points="96.2 26.9 119.13 37.02 119.13 38.53 119.13 38.53 110.05 42.54 97.3 36.91 76.86 27.89 56.42 36.91 43.67 42.54 34.59 38.53 34.59 38.53 34.59 38.53 34.59 37.02 57.51 26.9 50.88 23.97 74.06 13.74 76.86 0 79.66 13.74 102.84 23.97 96.2 26.9" style="fill:#a7a9ac; fill-rule:evenodd; opacity:.21; stroke-width:0px;"/><path d="m102.96,160.62c1.74-4.82,2.69-10.02,2.69-15.43,0-18.32-.01-36.58.02-54.9.03-17.82,15.52-31.12,32.67-27.49-3.52-7.69-10.38-13.03-19.33-13.03-17.91,0-32.56,18.23-32.56,40.91,0,18.29,0,36.32,0,54.51,0,5.35-1.62,10.34-4.39,14.5,3.08,2.41,6.94,3.85,11.11,3.85,3.6,0,6.97-1.07,9.8-2.92m-86.91-15.43c0,25.02,19.71,45.48,44.51,45.48h0c1.63,0,3.24-.09,4.83-.26-9.31-5.85-16.71-14.55-20.98-24.86-5.93-4.79-9.16-12.15-9.16-20.36l.03-44.48C35.31,76.97,4.97,73.92,0,92.82c.74-.13,1.5-.2,2.28-.2,7.2,0,13.77,5.94,13.77,13.2v39.38Z" style="fill:#a7a9ac; fill-rule:evenodd; opacity:.21; stroke-width:0px;"/><path d="m118.43,100.7c-.02-23.64,29.74-26.78,34.71-7.89-.74-.13-1.5-.2-2.28-.2-7.2,0-13.19,5.94-13.19,13.2v39.38c.02,25.02-19.7,45.48-44.51,45.48h0c-24.8,0-45.1-20.47-45.1-45.48,0-18.32.01-36.58-.02-54.9-.03-17.82-15.52-31.12-32.67-27.49,3.52-7.69,10.38-13.03,19.33-13.03,17.91,0,32.56,18.23,32.56,40.91,0,18.29,0,36.32,0,54.51,0,14.36,11.65,26.1,25.88,26.1h0c14.23,0,25.31-11.75,25.3-26.1l-.03-44.48Z" style="fill:#a7a9ac; fill-rule:evenodd; opacity:.21; stroke-width:0px;"/><path d="m76.86,69.29c-1.95-4.16-4.33-8.1-7.15-11.72-3.81-4.9-8.32-9.06-13.35-12.23l.11-.05,20.39-9,20.27,8.95.23.1c-5.03,3.18-9.54,7.34-13.35,12.23-2.82,3.62-5.2,7.56-7.15,11.72" style="fill:#a7a9ac; fill-rule:evenodd; opacity:.21; stroke-width:0px;"/><polygon points="91.79 43.4 109.19 51.08 109.19 52.23 109.19 52.23 102.3 55.27 92.62 51 77.11 44.15 61.6 51 51.93 55.27 45.04 52.23 45.03 52.23 45.03 52.23 45.03 51.08 62.43 43.4 57.4 41.18 74.98 33.42 77.11 22.99 79.24 33.42 96.83 41.18 91.79 43.4" style="fill:#004fa3; fill-rule:evenodd; stroke-width:0px;"/><path d="m96.92,144.87c1.32-3.66,2.04-7.6,2.04-11.71,0-13.9,0-27.75.01-41.66.02-13.52,11.78-23.62,24.79-20.86-2.67-5.84-7.87-9.89-14.67-9.89-13.59,0-24.71,13.83-24.71,31.05,0,13.88,0,27.56,0,41.36,0,4.06-1.23,7.85-3.33,11,2.34,1.83,5.27,2.92,8.43,2.92,2.73,0,5.29-.82,7.44-2.22m-65.95-11.71c0,18.98,14.95,34.51,33.77,34.51h0c1.24,0,2.46-.07,3.67-.2-7.07-4.44-12.68-11.04-15.92-18.86-4.5-3.64-6.95-9.22-6.95-15.45l.03-33.75c.01-18.01-23-20.32-26.78-5.98.56-.1,1.14-.15,1.73-.15,5.46,0,10.45,4.51,10.45,10.01v29.88Z" style="fill:#fabd0f; fill-rule:evenodd; stroke-width:0px;"/><path d="m108.65,99.41c-.01-17.93,22.56-20.32,26.34-5.98-.56-.1-1.14-.15-1.73-.15-5.46,0-10.01,4.51-10.01,10.01v29.88c.01,18.98-14.95,34.51-33.77,34.51h0c-18.82,0-34.22-15.53-34.22-34.51,0-13.9,0-27.75-.01-41.66-.02-13.52-11.78-23.62-24.79-20.86,2.67-5.84,7.87-9.89,14.67-9.89,13.59,0,24.71,13.83,24.71,31.05,0,13.88,0,27.56,0,41.36,0,10.89,8.84,19.81,19.64,19.81h0c10.8,0,19.21-8.91,19.2-19.81l-.03-33.75Z" style="fill:#004fa3; fill-rule:evenodd; stroke-width:0px;"/><path d="m77.11,75.57c-1.48-3.15-3.28-6.14-5.42-8.89-2.89-3.71-6.31-6.87-10.13-9.28l.08-.04,15.47-6.83,15.38,6.79.17.08c-3.82,2.41-7.24,5.57-10.13,9.28-2.14,2.75-3.95,5.74-5.42,8.89" style="fill:#fabd0f; fill-rule:evenodd; stroke-width:0px;"/><text transform="translate(164.26 154.54)" style="fill:#004fa3; font-family:SegoeUI-Italic, &apos;Segoe UI&apos;; font-size:12.18px; font-style:italic;"><tspan x="0" y="0">Dignity </tspan></text><text transform="translate(215.97 154.54)" style="fill:#004fa3; font-family:SegoeUI-Italic, &apos;Segoe UI&apos;; font-size:12.18px; font-style:italic;"><tspan x="0" y="0">Quality </tspan></text><text transform="translate(268.14 154.54)" style="fill:#004fa3; font-family:SegoeUI-Italic, &apos;Segoe UI&apos;; font-size:12.18px; font-style:italic;"><tspan x="0" y="0">Integrity</tspan></text><path d="m209.59,149.84c.78,0,1.41.63,1.41,1.41s-.63,1.41-1.41,1.41-1.41-.63-1.41-1.41.63-1.41,1.41-1.41" style="fill:#004fa3; fill-rule:evenodd; stroke-width:0px;"/><path d="m261.42,149.84c.78,0,1.41.63,1.41,1.41s-.63,1.41-1.41,1.41-1.41-.63-1.41-1.41.63-1.41,1.41-1.41" style="fill:#004fa3; fill-rule:evenodd; stroke-width:0px;"/><path d="m275.67,113.31c1.33,0,10.28.09,11.34-.04v-22.81c5.65,0,6.19-.33,8.4,3.81l9.9,19.04h12.7c-.29-.86-7.24-14.32-7.81-15.43-1.72-3.33-4.07-8.48-6.22-11.26-1.01-1.3-1.66-1.86-2.95-2.91.39-.38.76-.76,1.23-1.22,1.05-1.05,6.64-8.93,7.64-10.31l8.58-11.9c-4.04-.1-9.19,0-13.35,0-.42,0-.55.44-1.05,1.14l-12.07,16.93c-1.51,1.63-2.72,1.38-5.01,1.38v-19.39c-1.01-.17-9.6-.06-11.34-.06v53.04Z" style="fill:#004fa3; fill-rule:evenodd; stroke-width:0px;"/><path d="m210.46,113.38h10.44s2.19-32.5,2.19-32.5c.06-.81.12-1.59.16-2.39.04-.79-.13-1.76.43-2.1,1.04-.26.96,1.1,1.09,1.91.15.95.35,1.86.55,2.77.38,1.74.78,3.56,1.19,5.3l4.78,21.23c.92,4.25,1.43,5.8,7.22,5.78,5.97-.02,6.04-2.13,6.94-6.06.81-3.54,1.59-7.08,2.39-10.61l4.35-19.96c.19-.44.69-.6,1.02-.16.28.34,1.21,16.47,1.33,18.29.42,6.15.85,12.31,1.24,18.47l10.44.04c-.46-9.19-1.23-18.52-1.87-27.71-.32-4.6-.62-9.23-.94-13.84-.16-2.3-.26-4.66-.47-6.94-.2-2.25-1.59-3.29-3.49-3.94-3.99-1.38-9.38-.97-11.61,1.64-1.2,1.41-1.45,3.33-1.96,5.45-2.15,8.78-4.32,18.02-6.55,26.75-.2.79-.37,2.46-.94,2.86-.49-.21-.49-.61-.64-1.21-.12-.5-.24-.95-.37-1.46l-5.09-20.79c-.48-2-.99-3.96-1.46-5.96-.92-3.9-1.3-7.31-6.92-7.93-2.07-.23-4.75,0-6.61.62-1.87.63-3.35,1.65-3.57,3.85-.23,2.27-.32,4.66-.47,6.96-.31,4.61-.62,9.24-.94,13.84-.64,9.25-1.36,18.55-1.87,27.8" style="fill:#004fa3; fill-rule:evenodd; stroke-width:0px;"/><path d="m179.8,103.53c-4.79.17-9.6-2.84-9.6-10.25v-26.63c0-6.44-6.05-6.42-7.72-6.41-1.2,0-2.39.01-3.59.02,0,9.75.01,19.32,0,28.89-.01,10.4,1.71,16.11,8.16,20.56,3.33,2.3,7.98,3.61,12.76,3.63,4.78-.02,9.43-1.34,12.76-3.63,6.44-4.45,8.17-10.15,8.16-20.56,0-9.57,0-19.14,0-28.89-1.2,0-2.39-.01-3.59-.02-1.68,0-7.72-.03-7.72,6.41v26.63c0,7.41-4.81,10.42-9.61,10.25" style="fill:#004fa3; fill-rule:evenodd; stroke-width:0px;"/><path d="m147.37,125.82v1.37c0,1.31-.03,2.65,0,3.96.03,1.23.46,2.26,1.09,2.89.09.09.15.16.26.26.6.57,1.63.93,2.51.93,1.03,0,2.18-.5,2.76-1.22.71-.86,1.03-1.66,1.06-2.89.03-1.31,0-2.64,0-3.96v-1.35h0c0-1.26,0-2.31,0-2.61h-.54s-.83,0-.83.94c0,.56,0,1.11,0,1.67h0v4.04c0,1.08.08,2.07-.4,2.94-.35.63-1.02,1.25-2.06,1.25-.5,0-.95-.16-1.28-.4-1.29-.91-1.16-2.41-1.16-3.82v-4.01h0c0-.56,0-1.11,0-1.67,0-.95-.81-.95-.83-.94h-.54c0,.3,0,1.34,0,2.61h0Z" style="fill:#004fa3; fill-rule:evenodd; stroke-width:0px;"/><path d="m158.83,135.24v-5.43c0-.54-.04-5.26.04-5.37.15,0,.21.35.3.63l2.96,8.83c.16.48.27.95.62,1.19.7.47,2.02.43,2.21-.91.07-.49.02-1.28.02-1.8v-9.05h-1.36v5.43c0,.59.03,5.2-.02,5.38-.17,0-.21-.33-.31-.62l-2.96-8.83c-.18-.53-.25-.9-.62-1.19-.33-.26-.98-.37-1.46-.17-1.01.41-.77,1.81-.77,2.85v9.08h1.36Z" style="fill:#004fa3; fill-rule:evenodd; stroke-width:0px;"/><polygon points="167.46 135.14 168.75 135.14 168.85 135.13 168.85 123.22 168.75 123.22 167.46 123.22 167.46 135.14" style="fill:#004fa3; fill-rule:evenodd; stroke-width:0px;"/><path d="m170.49,123.22c.1.52.27,1.1.4,1.63.13.54.26,1.07.4,1.62l1.62,6.5c.29,1.19.39,2.27,1.79,2.27,1.38,0,1.53-1.28,1.78-2.28.27-1.09.54-2.16.81-3.24l1.23-4.88c.13-.51.31-1.11.4-1.62h-1.37c-.2.89-.46,1.84-.7,2.72-.24.9-.46,1.79-.7,2.69l-1.3,5.06c-.09.36-.22.33-.32-.06l-1.97-7.76c-.11-.45-.22-.89-.34-1.34l-.26-1.01c-.02-.09-.03-.25-.11-.3h-1.37Z" style="fill:#004fa3; fill-rule:evenodd; stroke-width:0px;"/><path d="m186.5,135.14v-1.17h-4.6s0-4.68,0-4.68h4.4c.06-.17.03-.9.03-1.12h-4.43v-3.75s4.6,0,4.6,0v-1.18c-.24-.04-3.89,0-4.46,0-.05,0-.11,0-.17,0h0c-.08,0-.15,0-.23,0h-1.14v2.62c-.01,2.6,0,7.02,0,7.8,0,1.36.25,1.5,1.5,1.5.58,0,4.25.03,4.49-.01" style="fill:#004fa3; fill-rule:evenodd; stroke-width:0px;"/><path d="m191.79,130.04c.48.99.99,2,1.46,2.98,1.09,2.18,1.01,2.13,2.32,2.13-.09-.5-1.64-3.45-2.53-5.24.22-.05.43-.11.62-.2,2.02-.92,2.44-3.65,1.26-5.22-1.13-1.51-2.75-1.26-4.56-1.26-.13,0-.25,0-.37,0h-1.29v1.01c-.04.41,0,.89,0,1.22v9.7h1.39s0-5.12,0-5.12c.53,0,1.12.03,1.69.01m-1.69-5.62c.87,0,2.22-.09,2.96.2.74.3,1.16.99,1.12,2.02-.04,1.01-.5,1.65-1.17,1.97-.7.33-2.05.23-2.91.23v-4.42Z" style="fill:#004fa3; fill-rule:evenodd; stroke-width:0px;"/><path d="m196.79,133.18c.73,1.42,3.19,2.62,5.32,1.53,1.83-.94,2.28-3.63.6-5.14-1.15-1.03-4.17-1.86-4.26-3.4-.06-1.09.94-1.83,2.02-1.79.5.02.96.16,1.33.39.71.46,1.11.58,1.92.03-1.51-2.47-6.95-2.15-6.65,1.58.09,1.14.94,1.78,1.65,2.24,1.43.92,4.3,1.64,3.52,4.03-.41,1.27-1.96,1.83-3.53.72-.45-.31-1.12-1.01-1.92-.2" style="fill:#004fa3; fill-rule:evenodd; stroke-width:0px;"/><polygon points="205.61 135.14 206.91 135.14 207 135.13 207 123.22 206.91 123.22 205.61 123.22 205.61 135.14" style="fill:#004fa3; fill-rule:evenodd; stroke-width:0px;"/><path d="m212.64,135.14v-10.75c.18-.05,1.21-.02,1.47-.02h1.5v-1.16s-7.31,0-7.31,0v1.17h2.96v10.75h1.38Z" style="fill:#004fa3; fill-rule:evenodd; stroke-width:0px;"/><path d="m215.14,135.24h1.41s.94-3.72.94-3.72h3.75c.1.28.38,1.47.48,1.86l.42,1.64c.02.09.02.18.09.21h1.33c-.11-.53-.28-1.1-.41-1.62l-2.03-8.1c-.29-1.14-.44-2.28-1.76-2.3-1.42-.02-1.52,1.07-1.81,2.25-.27,1.08-.54,2.17-.81,3.25l-1.21,4.87c-.13.53-.31,1.12-.41,1.65m2.63-4.86c.08-.45.26-1.03.37-1.48l.95-3.71c.04-.16.1-.68.28-.65.1.02.12.2.15.32l1.42,5.52h-3.17Z" style="fill:#004fa3; fill-rule:evenodd; stroke-width:0px;"/><path d="m224.35,133.18c.73,1.42,3.19,2.62,5.32,1.53,1.83-.94,2.28-3.63.6-5.14-1.15-1.03-4.17-1.86-4.26-3.4-.06-1.09.94-1.83,2.02-1.79.5.02.96.16,1.32.39.71.46,1.11.58,1.92.03-1.51-2.47-6.95-2.15-6.65,1.58.09,1.14.94,1.78,1.65,2.24,1.43.92,4.3,1.64,3.52,4.03-.41,1.27-1.96,1.83-3.53.72-.45-.31-1.12-1.01-1.92-.2" style="fill:#004fa3; fill-rule:evenodd; stroke-width:0px;"/><path d="m237.51,135.24c.11-1.8.28-3.62.42-5.43.07-.9.14-1.8.21-2.71.03-.35.15-2.52.25-2.67.17-.02.19.09.22.24l1.09,5.53c.13.66.72,3.91.92,4.41.18.48.52.62,1.14.62.65,0,.95-.15,1.14-.65.18-.47.78-3.75.91-4.39l1.02-5.17c.08-.44.06-.61.28-.6.13.17.13,1.01.16,1.32l.73,9.48c.18.05,1.13.01,1.39.01-.24-3.18-.62-6.56-.91-9.78-.12-1.34,0-2.2-1.3-2.24-.67-.02-1.05.02-1.3.48-.19.35-.28.99-.36,1.43l-1.4,7.47c-.04.19-.21,1.39-.33,1.44-.15.02-.15-.1-.18-.26l-1.61-8.62c-.08-.43-.17-1.09-.35-1.43-.25-.47-.62-.52-1.28-.51-.61.01-.96.16-1.13.65-.14.4-.16,1.12-.2,1.58-.1,1.09-.2,2.18-.3,3.27-.2,2.16-.44,4.35-.61,6.52h1.39Z" style="fill:#004fa3; fill-rule:evenodd; stroke-width:0px;"/><path d="m249.48,125.82v1.37c0,1.31-.03,2.65,0,3.96.03,1.23.46,2.26,1.09,2.89.09.09.15.16.26.26.6.57,1.63.93,2.51.93,1.03,0,2.17-.5,2.76-1.22.7-.86,1.03-1.66,1.06-2.89.03-1.31,0-2.64,0-3.96v-1.35h0c0-1.26,0-2.31,0-2.61h-.54s-.83,0-.83.94c0,.56,0,1.11,0,1.67h0v4.04c0,1.08.08,2.07-.4,2.94-.35.63-1.02,1.25-2.06,1.25-.5,0-.95-.16-1.28-.4-1.29-.91-1.16-2.41-1.16-3.82v-4.01h0c0-.56,0-1.11,0-1.67,0-.95-.81-.95-.83-.94h-.54c0,.3,0,1.34,0,2.61h0Z" style="fill:#004fa3; fill-rule:evenodd; stroke-width:0px;"/><path d="m263.16,130.04c.48.99.99,2,1.46,2.98,1.09,2.18,1.01,2.13,2.32,2.13-.09-.5-1.64-3.45-2.53-5.24.22-.05.43-.11.62-.2,2.02-.92,2.44-3.65,1.26-5.22-1.13-1.51-2.75-1.26-4.56-1.26-.13,0-.25,0-.37,0h-1.29v1.01c-.04.41,0,.89,0,1.22v9.7h1.39s0-5.12,0-5.12c.53,0,1.12.03,1.69.01m-1.69-5.62c.87,0,2.22-.09,2.96.2.74.3,1.16.99,1.12,2.02-.04,1.01-.5,1.65-1.17,1.97-.7.33-2.05.23-2.91.23v-4.42Z" style="fill:#004fa3; fill-rule:evenodd; stroke-width:0px;"/><polygon points="268.74 135.14 270.03 135.14 270.13 135.13 270.13 123.22 270.03 123.22 268.74 123.22 268.74 135.14" style="fill:#004fa3; fill-rule:evenodd; stroke-width:0px;"/><path d="m271.43,135.24h1.41s.94-3.72.94-3.72h3.75c.1.28.38,1.47.48,1.86l.42,1.64c.02.09.02.18.09.21h1.33c-.11-.53-.28-1.1-.41-1.62l-2.03-8.1c-.29-1.14-.44-2.28-1.76-2.3-1.42-.02-1.52,1.07-1.81,2.25-.27,1.08-.54,2.17-.81,3.25l-1.21,4.87c-.13.53-.31,1.12-.41,1.65m2.63-4.86c.08-.45.26-1.03.37-1.48l.95-3.71c.04-.16.1-.68.28-.65.1.02.12.2.15.32l1.42,5.52h-3.17Z" style="fill:#004fa3; fill-rule:evenodd; stroke-width:0px;"/><path d="m288.6,128.59c.03-.11.15-.2.24-.29.08-.09.16-.2.24-.31.33-.44.91-1.53,1.16-2.02.18-.35,1.44-2.61,1.49-2.75h-1.54c-.26.56-.85,1.62-1.19,2.26-.31.6-.9,1.78-1.24,2.2-.48.61-.87.47-1.84.47v-4.94h-1.39s0,11.92,0,11.92h1.39v-5.79c1.69,0,2.17-.01,2.71,1.25l1.22,2.74c.08.18.76,1.78.83,1.8h1.43c-.11-.3-.26-.6-.39-.89-.13-.3-.26-.58-.39-.88l-1.55-3.47c-.14-.31-.3-.55-.49-.78-.32-.38-.45-.35-.7-.53" style="fill:#004fa3; fill-rule:evenodd; stroke-width:0px;"/><path d="m293.17,125.82v1.37c0,1.31-.03,2.65,0,3.96.03,1.23.46,2.26,1.09,2.89.09.09.15.16.26.26.6.57,1.63.93,2.51.93,1.03,0,2.18-.5,2.76-1.22.71-.86,1.03-1.66,1.06-2.89.03-1.31,0-2.64,0-3.96v-1.35h0c0-1.26,0-2.31,0-2.61h-.54s-.83,0-.83.94c0,.56,0,1.11,0,1.67h0v4.04c0,1.08.08,2.07-.4,2.94-.35.63-1.02,1.25-2.06,1.25-.5,0-.95-.16-1.28-.4-1.29-.91-1.16-2.41-1.16-3.82v-4.01h0c0-.56,0-1.11,0-1.67,0-.95-.81-.95-.83-.94h-.54c0,.3,0,1.34,0,2.61h0Z" style="fill:#004fa3; fill-rule:evenodd; stroke-width:0px;"/><path d="m304.05,123.24c-.34.05-.6.3-.71.56-.13.32-.08.84-.08,1.21v8.95c0,1.14.56,1.19,1.37,1.19h1.29c1.91,0,2.85-.03,4.07-1.04,2.01-1.67,2.24-5.51,1.31-7.91-.46-1.21-1.32-2.18-2.48-2.63-1.09-.42-2.27-.33-3.5-.33-.34,0-.98-.04-1.28,0m.6,1.18c1.12,0,2.77-.16,3.71.27.91.41,1.44,1.16,1.77,2.19.41,1.3.41,3.35,0,4.64-.44,1.39-1.34,2.33-2.84,2.43-.82.06-1.8,0-2.64,0v-9.54Z" style="fill:#004fa3; fill-rule:evenodd; stroke-width:0px;"/><path d="m313.54,125.82v1.37c0,1.31-.03,2.65,0,3.96.03,1.23.46,2.26,1.09,2.89.09.09.15.16.26.26.6.57,1.63.93,2.51.93,1.03,0,2.18-.5,2.76-1.22.7-.86,1.03-1.66,1.06-2.89.03-1.31,0-2.64,0-3.96v-1.35h0c0-1.26,0-2.31,0-2.61h-.54s-.83,0-.83.94c0,.56,0,1.11,0,1.67h0v4.04c0,1.08.08,2.07-.4,2.94-.35.63-1.02,1.25-2.06,1.25-.5,0-.95-.16-1.28-.4-1.29-.91-1.16-2.41-1.16-3.82v-4.01h0c0-.56,0-1.11,0-1.67,0-.95-.81-.95-.83-.94h-.54c0,.3,0,1.34,0,2.61h0Z" style="fill:#004fa3; fill-rule:evenodd; stroke-width:0px;"/><path d="m323.03,133.18c.73,1.42,3.19,2.62,5.32,1.53,1.83-.94,2.28-3.63.6-5.14-1.15-1.03-4.17-1.86-4.26-3.4-.06-1.09.94-1.83,2.02-1.79.5.02.96.16,1.33.39.71.46,1.11.58,1.92.03-1.51-2.47-6.95-2.15-6.65,1.58.09,1.14.94,1.78,1.65,2.24,1.43.92,4.3,1.64,3.52,4.03-.41,1.27-1.96,1.83-3.53.72-.45-.31-1.12-1.01-1.92-.2" style="fill:#004fa3; fill-rule:evenodd; stroke-width:0px;"/></svg>